<?xml version="1.0" standalone="no"?>
<!DOCTYPE svg PUBLIC "-//W3C//DTD SVG 20010904//EN"
 "http://www.w3.org/TR/2001/REC-SVG-20010904/DTD/svg10.dtd">
<svg version="1.0" xmlns="http://www.w3.org/2000/svg"
 width="500.000000pt" height="500.000000pt" viewBox="0 0 500.000000 500.000000"
 preserveAspectRatio="xMidYMid meet">

<g transform="translate(0.000000,500.000000) scale(0.100000,-0.100000)"
fill="#000000" stroke="none">
<path d="M2715 4858 c-31 -169 -62 -354 -60 -356 2 -2 18 -5 36 -5 l33 -2 21
122 c11 67 23 124 26 127 3 3 40 -61 84 -142 43 -81 78 -148 79 -148 1 -1 15
-5 32 -8 l30 -7 33 191 c18 105 31 193 29 196 -3 2 -18 6 -34 10 l-30 6 -23
-128 c-12 -71 -24 -130 -26 -132 -3 -4 -36 53 -114 201 -29 53 -58 97 -66 97
-7 0 -20 3 -29 6 -11 4 -16 -3 -21 -28z"/>
<path d="M1917 4816 c-64 -18 -120 -36 -123 -39 -6 -6 89 -364 99 -373 3 -3
36 4 74 14 37 11 94 28 126 37 56 15 59 17 52 43 -4 15 -8 29 -10 30 -2 2 -44
-8 -94 -22 -49 -14 -92 -26 -94 -26 -9 0 -30 91 -23 98 4 4 39 16 79 28 65 18
72 22 69 44 -1 13 -4 26 -7 28 -2 2 -37 -4 -77 -14 -40 -10 -77 -19 -82 -19
-8 0 -39 86 -33 91 1 1 40 12 87 24 47 13 89 26 93 30 9 8 -1 60 -12 59 -3 0
-59 -15 -124 -33z"/>
<path d="M3359 4637 c-63 -34 -101 -98 -100 -172 0 -68 21 -114 71 -159 85
-77 205 -73 286 8 81 80 81 196 0 284 -58 65 -175 82 -257 39z m167 -53 c95
-45 109 -163 28 -234 -86 -75 -227 -10 -227 105 0 54 28 102 73 126 43 23 81
24 126 3z"/>
<path d="M1360 4589 c-152 -64 -176 -269 -42 -363 110 -77 277 -16 312 114 12
46 5 100 -14 100 -22 0 -55 -30 -50 -45 17 -43 -37 -119 -94 -135 -50 -13
-104 3 -136 41 -66 78 -49 176 38 218 40 20 50 21 81 11 19 -6 37 -16 41 -21
7 -12 65 22 61 35 -2 5 -15 19 -30 30 -31 23 -128 32 -167 15z"/>
<path d="M3858 4196 l-137 -143 25 -24 24 -23 50 49 50 49 30 -29 30 -30 -20
-65 c-11 -36 -20 -72 -20 -81 0 -14 39 -59 52 -59 2 0 13 36 23 81 l19 81 32
-7 c97 -18 177 94 130 183 -8 15 -45 57 -83 94 l-68 68 -137 -144z m232 -68
c0 -33 -31 -68 -61 -68 -11 0 -41 20 -67 44 l-47 45 45 45 44 46 43 -42 c30
-30 43 -50 43 -70z"/>
<path d="M801 4116 l-23 -25 83 -78 c181 -170 198 -185 206 -181 13 5 163 164
163 172 0 4 -10 16 -22 25 -21 17 -22 17 -82 -46 l-61 -64 -117 111 c-65 60
-119 110 -121 110 -2 0 -14 -11 -26 -24z"/>
<path d="M2100 3849 c-154 -30 -272 -161 -295 -326 l-7 -53 -248 0 c-213 0
-251 -2 -264 -16 -14 -14 -16 -101 -16 -808 0 -755 1 -794 18 -809 21 -19 45
-21 73 -7 19 10 19 29 19 730 0 396 3 720 8 720 4 0 132 -108 285 -241 l277
-241 0 -689 c0 -379 -2 -689 -6 -689 -3 0 -82 67 -177 150 -100 87 -181 150
-192 150 -11 0 -31 -7 -43 -16 -48 -34 -31 -55 203 -261 121 -106 232 -200
247 -208 27 -15 57 -5 870 286 464 165 851 308 861 316 16 15 17 66 17 792 0
756 -1 777 -20 809 l-20 32 -578 0 -578 0 -10 69 c-12 75 -39 139 -67 155 -24
15 -71 -12 -75 -43 -2 -12 4 -40 12 -62 33 -82 16 -192 -41 -258 -145 -170
-433 -67 -433 155 0 132 88 234 217 251 27 3 56 13 66 21 24 22 22 67 -5 86
-25 18 -32 18 -98 5z m-251 -534 c32 -60 99 -121 169 -153 48 -22 72 -26 147
-26 78 0 98 3 152 28 68 31 141 100 170 160 l17 36 410 -1 c401 0 410 -1 371
-18 -22 -10 -315 -116 -651 -235 l-611 -218 -267 231 c-146 128 -266 234 -266
237 0 2 75 4 168 4 l167 0 24 -45z m1771 -189 l0 -204 -42 -15 c-84 -29 -1473
-525 -1491 -532 -16 -7 -17 5 -15 201 l3 208 760 272 c418 150 766 273 773
273 9 1 12 -46 12 -203z m0 -535 c0 -149 -3 -202 -12 -208 -7 -4 -355 -129
-773 -279 l-760 -271 -3 205 c-1 113 -1 206 1 208 7 8 1514 543 1530 543 16 1
17 -15 17 -198z m-2 -511 l-3 -164 -760 -272 c-418 -150 -766 -273 -772 -273
-10 -1 -13 39 -13 169 0 94 1 170 3 170 1 0 346 124 767 274 421 150 768 270
773 266 4 -3 6 -80 5 -170z"/>
<path d="M4240 3775 c-85 -46 -159 -86 -164 -88 -9 -3 11 -67 21 -67 2 0 55
27 117 60 62 33 116 60 120 60 3 0 -12 -36 -34 -80 -22 -44 -40 -86 -40 -94 0
-9 23 -17 75 -25 42 -6 85 -11 95 -11 38 0 19 -16 -93 -74 -61 -33 -113 -60
-115 -62 -2 -1 4 -16 13 -34 l16 -31 147 77 c214 113 203 104 186 136 -14 27
-13 27 -156 49 -43 6 -78 15 -78 19 0 4 20 51 45 104 38 83 43 100 33 121 -6
14 -16 25 -22 25 -6 -1 -81 -39 -166 -85z"/>
<path d="M562 3800 c-6 -11 -12 -24 -12 -29 0 -6 49 -35 110 -66 146 -75 173
-112 135 -185 -35 -68 -79 -66 -221 10 -62 33 -115 60 -118 60 -3 0 -12 -13
-21 -29 l-15 -30 116 -62 c164 -87 226 -90 294 -13 60 69 64 156 9 219 -26 29
-230 145 -256 145 -4 0 -14 -9 -21 -20z"/>
<path d="M445 3203 c-52 -9 -66 -15 -95 -39 -17 -15 -39 -43 -49 -63 -17 -32
-57 -209 -49 -216 4 -5 381 -76 383 -73 1 2 10 46 20 98 25 140 6 213 -69 260
-35 21 -107 38 -141 33z m102 -93 c48 -29 56 -53 50 -138 -3 -41 -7 -76 -9
-78 -3 -2 -62 8 -133 21 -71 14 -130 25 -131 25 -1 0 4 26 11 59 20 96 55 130
135 131 27 0 57 -8 77 -20z"/>
<path d="M4319 3118 c6 -27 13 -34 46 -44 l40 -11 17 -89 c9 -49 16 -89 15
-90 -1 0 -17 -11 -35 -23 -29 -20 -32 -27 -26 -55 3 -17 7 -32 9 -34 1 -1 76
45 166 104 90 58 170 109 178 114 10 5 12 17 7 42 l-6 34 -198 42 c-108 23
-202 42 -208 42 -8 0 -9 -11 -5 -32z m273 -92 l50 -11 -73 -47 c-83 -52 -78
-55 -93 40 l-6 43 36 -7 c20 -4 59 -12 86 -18z"/>
<path d="M1341 969 c-113 -22 -148 -152 -57 -209 18 -11 62 -27 97 -36 85 -21
109 -37 109 -74 0 -39 -32 -60 -91 -60 -49 0 -99 28 -99 56 0 10 -12 14 -41
14 -40 0 -41 -1 -34 -27 18 -77 69 -108 175 -108 118 0 170 42 170 135 0 32
-6 48 -28 70 -26 26 -112 60 -151 60 -27 0 -81 39 -81 58 0 38 25 55 79 56 46
1 56 -3 76 -26 18 -21 33 -28 60 -28 33 0 36 2 30 23 -24 80 -106 117 -214 96z"/>
<path d="M190 751 l0 -221 40 0 40 0 0 70 0 70 67 0 c122 0 183 51 183 152 0
25 -8 56 -20 75 -31 52 -70 66 -197 71 l-113 5 0 -222z m231 123 c28 -29 28
-78 -1 -109 -20 -22 -32 -25 -87 -25 l-63 0 0 81 0 81 65 -4 c49 -3 71 -9 86
-24z"/>
<path d="M827 958 c-3 -7 -42 -101 -87 -208 -45 -107 -84 -201 -87 -207 -4 -9
7 -13 36 -13 40 0 43 2 61 45 l20 46 97 -3 98 -3 19 -42 c18 -40 22 -43 58
-43 21 0 38 3 38 8 0 4 -39 102 -88 217 l-87 210 -36 3 c-23 2 -38 -2 -42 -10z
m77 -188 c20 -46 36 -86 36 -87 0 -2 -31 -3 -70 -3 -38 0 -70 3 -70 7 0 10 64
172 67 170 1 -1 18 -40 37 -87z"/>
<path d="M1720 935 l0 -35 65 0 65 0 0 -185 0 -185 40 0 40 0 0 185 0 185 66
0 65 0 -3 33 -3 32 -167 3 -168 2 0 -35z"/>
<path d="M2237 963 c-4 -3 -7 -102 -7 -220 l0 -213 150 0 150 0 0 35 0 35
-110 0 -110 0 0 60 0 60 95 0 95 0 0 30 0 29 -92 3 -93 3 0 55 0 55 108 3 107
3 0 34 0 35 -143 0 c-79 0 -147 -3 -150 -7z"/>
<path d="M2720 751 l0 -221 135 0 135 0 0 35 0 35 -95 0 -95 0 -2 183 -3 182
-37 3 -38 3 0 -220z"/>
<path d="M3170 750 l0 -220 150 0 150 0 0 35 0 35 -110 0 -110 0 0 60 0 60 95
0 95 0 0 30 0 30 -95 0 -95 0 0 60 0 60 111 0 110 0 -3 33 -3 32 -147 3 -148
3 0 -221z"/>
<path d="M3658 964 c-5 -4 -8 -103 -8 -221 l0 -213 40 0 39 0 3 78 3 77 45 0
44 0 44 -77 43 -78 45 0 46 0 -20 33 c-11 17 -34 55 -50 83 l-30 52 24 11 c59
26 82 126 44 188 -31 52 -71 66 -195 71 -60 2 -113 1 -117 -4z m211 -79 c49
-25 56 -82 15 -114 -21 -16 -41 -21 -90 -21 l-64 0 0 68 c0 38 3 72 7 75 12
13 104 7 132 -8z"/>
<path d="M4180 751 l0 -221 40 0 40 0 -2 218 -3 217 -37 3 -38 3 0 -220z"/>
<path d="M4567 883 c-19 -49 -60 -148 -91 -220 l-55 -133 42 0 c41 0 43 2 58
43 l16 42 100 3 101 3 18 -46 c18 -43 21 -45 61 -45 l42 0 -45 107 c-25 60
-66 159 -91 221 l-46 112 -37 0 -37 0 -36 -87z m105 -101 c15 -37 30 -75 34
-84 5 -16 -2 -18 -66 -18 -64 0 -71 2 -66 18 32 86 60 152 65 152 3 0 18 -30
33 -68z"/>
</g>
</svg>
